<?xml version="1.0" encoding="UTF-8" standalone="no"?>
<!-- Created with Inkscape (http://www.inkscape.org/) -->

<svg
   xmlns:dc="http://purl.org/dc/elements/1.1/"
   xmlns:cc="http://creativecommons.org/ns#"
   xmlns:rdf="http://www.w3.org/1999/02/22-rdf-syntax-ns#"
   xmlns:svg="http://www.w3.org/2000/svg"
   xmlns="http://www.w3.org/2000/svg"
   xmlns:xlink="http://www.w3.org/1999/xlink"
   xmlns:sodipodi="http://sodipodi.sourceforge.net/DTD/sodipodi-0.dtd"
   xmlns:inkscape="http://www.inkscape.org/namespaces/inkscape"
   width="400"
   height="400"
   viewBox="0 0 105.83333 105.83334"
   version="1.1"
   id="svg8"
   inkscape:version="0.92.1 r15371"
   sodipodi:docname="GraphicDesign.svg"
   inkscape:export-filename="C:\Projects\Testing\JByrdDesigns\JByrdDesignsWeb\src\images\GraphicDesign.png"
   inkscape:export-xdpi="500"
   inkscape:export-ydpi="500">
  <defs
     id="defs2">
    <linearGradient
       inkscape:collect="always"
       id="linearGradient5848">
      <stop
         style="stop-color:#aaffee;stop-opacity:1;"
         offset="0"
         id="stop5844" />
      <stop
         style="stop-color:#aaffee;stop-opacity:0;"
         offset="1"
         id="stop5846" />
    </linearGradient>
    <linearGradient
       inkscape:collect="always"
       id="linearGradient5741">
      <stop
         style="stop-color:#0b2817;stop-opacity:1;"
         offset="0"
         id="stop5737" />
      <stop
         style="stop-color:#0b2817;stop-opacity:0;"
         offset="1"
         id="stop5739" />
    </linearGradient>
    <linearGradient
       inkscape:collect="always"
       id="linearGradient5720">
      <stop
         style="stop-color:#ffffff;stop-opacity:1"
         offset="0"
         id="stop5716" />
      <stop
         style="stop-color:#767676;stop-opacity:1"
         offset="1"
         id="stop5718" />
    </linearGradient>
    <linearGradient
       inkscape:collect="always"
       id="linearGradient5701">
      <stop
         style="stop-color:#f9f9f9;stop-opacity:1;"
         offset="0"
         id="stop5697" />
      <stop
         style="stop-color:#f9f9f9;stop-opacity:0;"
         offset="1"
         id="stop5699" />
    </linearGradient>
    <linearGradient
       inkscape:collect="always"
       id="linearGradient5685">
      <stop
         style="stop-color:#52ff9a;stop-opacity:1"
         offset="0"
         id="stop5681" />
      <stop
         id="stop5852"
         offset="0.5"
         style="stop-color:#2aff80;stop-opacity:0.49803922;" />
      <stop
         style="stop-color:#2aff80;stop-opacity:0;"
         offset="1"
         id="stop5683" />
    </linearGradient>
    <linearGradient
       inkscape:collect="always"
       id="linearGradient5671">
      <stop
         style="stop-color:#238248;stop-opacity:1;"
         offset="0"
         id="stop5667" />
      <stop
         style="stop-color:#28d06a;stop-opacity:0"
         offset="1"
         id="stop5669" />
    </linearGradient>
    <linearGradient
       inkscape:collect="always"
       id="linearGradient5633">
      <stop
         style="stop-color:#d5ffe6;stop-opacity:1;"
         offset="0"
         id="stop5629" />
      <stop
         style="stop-color:#d5ffe6;stop-opacity:0;"
         offset="1"
         id="stop5631" />
    </linearGradient>
    <linearGradient
       inkscape:collect="always"
       id="linearGradient5619">
      <stop
         style="stop-color:#28d06a;stop-opacity:1"
         offset="0"
         id="stop5615" />
      <stop
         style="stop-color:#238248;stop-opacity:1"
         offset="1"
         id="stop5617" />
    </linearGradient>
    <linearGradient
       inkscape:collect="always"
       id="linearGradient5592">
      <stop
         style="stop-color:#cacaca;stop-opacity:1"
         offset="0"
         id="stop5588" />
      <stop
         id="stop5596"
         offset="0.14114118"
         style="stop-color:#fafafa;stop-opacity:1" />
      <stop
         style="stop-color:#bbbbbb;stop-opacity:1;"
         offset="0.4824017"
         id="stop5598" />
      <stop
         id="stop5600"
         offset="0.77351952"
         style="stop-color:#737373;stop-opacity:1" />
      <stop
         style="stop-color:#999999;stop-opacity:1"
         offset="1"
         id="stop5590" />
    </linearGradient>
    <linearGradient
       inkscape:collect="always"
       id="linearGradient5584">
      <stop
         style="stop-color:#35c0a4;stop-opacity:1"
         offset="0"
         id="stop5580" />
      <stop
         style="stop-color:#1c6656;stop-opacity:1"
         offset="1"
         id="stop5582" />
    </linearGradient>
    <linearGradient
       inkscape:collect="always"
       id="linearGradient5574">
      <stop
         style="stop-color:#464646;stop-opacity:1"
         offset="0"
         id="stop5570" />
      <stop
         style="stop-color:#141414;stop-opacity:1"
         offset="1"
         id="stop5572" />
    </linearGradient>
    <linearGradient
       inkscape:collect="always"
       id="linearGradient5524">
      <stop
         style="stop-color:#1c2422;stop-opacity:1;"
         offset="0"
         id="stop5520" />
      <stop
         style="stop-color:#1c2422;stop-opacity:0;"
         offset="1"
         id="stop5522" />
    </linearGradient>
    <linearGradient
       inkscape:collect="always"
       id="linearGradient4582">
      <stop
         style="stop-color:#d5f6ff;stop-opacity:1;"
         offset="0"
         id="stop4578" />
      <stop
         style="stop-color:#d5f6ff;stop-opacity:0;"
         offset="1"
         id="stop4580" />
    </linearGradient>
    <linearGradient
       inkscape:collect="always"
       id="linearGradient4549">
      <stop
         style="stop-color:#232323;stop-opacity:1"
         offset="0"
         id="stop4545" />
      <stop
         style="stop-color:#1a1a1a;stop-opacity:1"
         offset="1"
         id="stop4547" />
    </linearGradient>
    <linearGradient
       inkscape:collect="always"
       id="linearGradient4541">
      <stop
         style="stop-color:#00ccff;stop-opacity:1;"
         offset="0"
         id="stop4537" />
      <stop
         style="stop-color:#314540;stop-opacity:1"
         offset="1"
         id="stop4539" />
    </linearGradient>
    <linearGradient
       inkscape:collect="always"
       id="linearGradient4531">
      <stop
         style="stop-color:#ffffff;stop-opacity:1;"
         offset="0"
         id="stop4527" />
      <stop
         style="stop-color:#ffffff;stop-opacity:0;"
         offset="1"
         id="stop4529" />
    </linearGradient>
    <linearGradient
       inkscape:collect="always"
       id="linearGradient4511">
      <stop
         style="stop-color:#4d4d4d;stop-opacity:1;"
         offset="0"
         id="stop4507" />
      <stop
         id="stop4517"
         offset="0.28846148"
         style="stop-color:#898989;stop-opacity:1" />
      <stop
         style="stop-color:#949494;stop-opacity:1"
         offset="0.47596145"
         id="stop4519" />
      <stop
         id="stop4521"
         offset="0.68509609"
         style="stop-color:#cbcbcb;stop-opacity:1" />
      <stop
         style="stop-color:#f6f6f6;stop-opacity:1"
         offset="0.91225958"
         id="stop4523" />
      <stop
         style="stop-color:#626262;stop-opacity:1"
         offset="1"
         id="stop4509" />
    </linearGradient>
    <linearGradient
       inkscape:collect="always"
       xlink:href="#linearGradient4511"
       id="linearGradient4513"
       x1="51.525208"
       y1="261.9595"
       x2="51.525208"
       y2="281.61426"
       gradientUnits="userSpaceOnUse"
       gradientTransform="translate(-0.02011982)" />
    <linearGradient
       inkscape:collect="always"
       xlink:href="#linearGradient4531"
       id="linearGradient4535"
       x1="53.309944"
       y1="280.12323"
       x2="72.182686"
       y2="280.12323"
       gradientUnits="userSpaceOnUse"
       spreadMethod="reflect"
       gradientTransform="matrix(0.93630767,0,0,0.30782884,3.3703857,198.33523)" />
    <radialGradient
       inkscape:collect="always"
       xlink:href="#linearGradient4541"
       id="radialGradient4543"
       cx="52.916668"
       cy="278.78406"
       fx="52.916668"
       fy="278.78406"
       r="48.947918"
       gradientTransform="matrix(1.0274078,0,0,0.87051309,-1.4503272,19.769136)"
       gradientUnits="userSpaceOnUse" />
    <radialGradient
       inkscape:collect="always"
       xlink:href="#linearGradient4549"
       id="radialGradient4551"
       cx="52.916668"
       cy="181.6897"
       fx="52.916668"
       fy="181.6897"
       r="51.59375"
       gradientTransform="matrix(-1.4589235,5.6139146e-8,-4.0246607e-8,-1.0459141,130.11805,402.59128)"
       gradientUnits="userSpaceOnUse" />
    <linearGradient
       inkscape:collect="always"
       xlink:href="#linearGradient4582"
       id="linearGradient4584"
       x1="86.844391"
       y1="203.33821"
       x2="86.844391"
       y2="250.08691"
       gradientUnits="userSpaceOnUse"
       gradientTransform="matrix(0.93630767,0,0,0.93630767,3.3703857,22.446382)" />
    <filter
       inkscape:collect="always"
       style="color-interpolation-filters:sRGB"
       id="filter4808"
       x="-0.3205739"
       width="1.6411478"
       y="-0.28190764"
       height="1.5638153">
      <feGaussianBlur
         inkscape:collect="always"
         stdDeviation="0.31475619"
         id="feGaussianBlur4810" />
    </filter>
    <radialGradient
       inkscape:collect="always"
       xlink:href="#linearGradient5524"
       id="radialGradient5526"
       cx="52.805775"
       cy="280.20877"
       fx="52.805775"
       fy="280.20877"
       r="42.04818"
       gradientTransform="matrix(1,0,0,0.20800889,0,221.92286)"
       gradientUnits="userSpaceOnUse" />
    <filter
       inkscape:collect="always"
       style="color-interpolation-filters:sRGB"
       id="filter5548"
       x="-0.021556768"
       width="1.0431135"
       y="-0.10363388"
       height="1.2072678">
      <feGaussianBlur
         inkscape:collect="always"
         stdDeviation="0.75535236"
         id="feGaussianBlur5550" />
    </filter>
    <radialGradient
       inkscape:collect="always"
       xlink:href="#linearGradient5574"
       id="radialGradient5576"
       cx="46.019253"
       cy="230.44746"
       fx="46.019253"
       fy="230.44746"
       r="20.6375"
       gradientTransform="matrix(-0.39174541,-0.36340171,0.38752768,-0.4177531,-32.765207,356.53536)"
       gradientUnits="userSpaceOnUse" />
    <linearGradient
       inkscape:collect="always"
       xlink:href="#linearGradient5584"
       id="linearGradient5586"
       x1="77.522919"
       y1="177.56966"
       x2="82.83268"
       y2="181.00925"
       gradientUnits="userSpaceOnUse"
       gradientTransform="matrix(0.53434574,0,0,0.53434574,14.789341,123.72537)" />
    <linearGradient
       inkscape:collect="always"
       xlink:href="#linearGradient5592"
       id="linearGradient5594"
       x1="54.371872"
       y1="210.54739"
       x2="65.418228"
       y2="218.41873"
       gradientUnits="userSpaceOnUse"
       gradientTransform="matrix(0.53434574,0,0,0.53434574,14.789341,123.72537)" />
    <linearGradient
       inkscape:collect="always"
       xlink:href="#linearGradient5619"
       id="linearGradient5621"
       x1="158.84375"
       y1="137.61523"
       x2="132.78711"
       y2="213.37379"
       gradientUnits="userSpaceOnUse"
       gradientTransform="matrix(0.14137898,0,0,0.14137898,14.789341,225.87446)" />
    <linearGradient
       inkscape:collect="always"
       xlink:href="#linearGradient5633"
       id="linearGradient5643"
       x1="40.298176"
       y1="230.26744"
       x2="41.441666"
       y2="241.79201"
       gradientUnits="userSpaceOnUse" />
    <linearGradient
       inkscape:collect="always"
       xlink:href="#linearGradient5671"
       id="linearGradient5673"
       x1="50.647049"
       y1="240.07617"
       x2="74.610153"
       y2="204.59167"
       gradientUnits="userSpaceOnUse"
       gradientTransform="matrix(0.93630767,0,0,0.93630767,3.3703857,22.446382)" />
    <linearGradient
       inkscape:collect="always"
       xlink:href="#linearGradient5685"
       id="linearGradient5687"
       x1="50.275375"
       y1="225.57144"
       x2="59.478676"
       y2="231.65182"
       gradientUnits="userSpaceOnUse" />
    <linearGradient
       inkscape:collect="always"
       xlink:href="#linearGradient5701"
       id="linearGradient5703"
       x1="36.679947"
       y1="234.57683"
       x2="38.726341"
       y2="239.4238"
       gradientUnits="userSpaceOnUse"
       gradientTransform="matrix(0.93630766,0,0,0.93630766,3.3703857,22.446383)" />
    <linearGradient
       inkscape:collect="always"
       xlink:href="#linearGradient5720"
       id="linearGradient5722"
       x1="45.020313"
       y1="225.73367"
       x2="48.621925"
       y2="233.08736"
       gradientUnits="userSpaceOnUse"
       gradientTransform="matrix(0.93630767,0,0,0.93630767,3.3703857,22.446382)" />
    <linearGradient
       inkscape:collect="always"
       xlink:href="#linearGradient5741"
       id="linearGradient5743"
       x1="30.424999"
       y1="248.46399"
       x2="72.186722"
       y2="223.3136"
       gradientUnits="userSpaceOnUse" />
    <filter
       inkscape:collect="always"
       style="color-interpolation-filters:sRGB"
       id="filter5777"
       x="-0.041417335"
       width="1.0828347"
       y="-0.057070501"
       height="1.114141">
      <feGaussianBlur
         inkscape:collect="always"
         stdDeviation="0.91754531"
         id="feGaussianBlur5779" />
    </filter>
    <linearGradient
       inkscape:collect="always"
       xlink:href="#linearGradient4511"
       id="linearGradient5806"
       gradientUnits="userSpaceOnUse"
       gradientTransform="matrix(0.93630767,0,0,0.93630767,3.3515474,22.446382)"
       x1="51.525208"
       y1="261.9595"
       x2="51.525208"
       y2="281.61426" />
    <linearGradient
       inkscape:collect="always"
       xlink:href="#linearGradient5848"
       id="linearGradient5850"
       x1="211.68976"
       y1="94.101761"
       x2="229.64113"
       y2="103.93308"
       gradientUnits="userSpaceOnUse" />
  </defs>
  <sodipodi:namedview
     id="base"
     pagecolor="#ffffff"
     bordercolor="#666666"
     borderopacity="1.0"
     inkscape:pageopacity="0.0"
     inkscape:pageshadow="2"
     inkscape:zoom="1"
     inkscape:cx="218.43995"
     inkscape:cy="186.25699"
     inkscape:document-units="mm"
     inkscape:current-layer="layer1"
     showgrid="false"
     units="px"
     inkscape:pagecheckerboard="true"
     inkscape:window-width="958"
     inkscape:window-height="1008"
     inkscape:window-x="2873"
     inkscape:window-y="0"
     inkscape:window-maximized="0" />
  <metadata
     id="metadata5">
    <rdf:RDF>
      <cc:Work
         rdf:about="">
        <dc:format>image/svg+xml</dc:format>
        <dc:type
           rdf:resource="http://purl.org/dc/dcmitype/StillImage" />
        <dc:title></dc:title>
      </cc:Work>
    </rdf:RDF>
  </metadata>
  <g
     inkscape:label="Layer 1"
     inkscape:groupmode="layer"
     id="layer1"
     transform="translate(0,-191.16665)">
    <ellipse
       style="opacity:0.5;fill:url(#radialGradient5526);fill-opacity:1;stroke:none;stroke-width:0.30799505;stroke-linecap:round;stroke-linejoin:round;stroke-miterlimit:7;stroke-dasharray:none;stroke-opacity:1;filter:url(#filter5548)"
       id="path5518"
       cx="52.805775"
       cy="280.20877"
       rx="42.04818"
       ry="8.7463951"
       transform="matrix(1.0617898,0,0,0.8032181,-3.1519631,60.804021)" />
    <path
       style="opacity:1;fill:url(#linearGradient5806);fill-opacity:1;stroke:none;stroke-width:1.02204633;stroke-linecap:round;stroke-linejoin:miter;stroke-miterlimit:10;stroke-dasharray:none;stroke-opacity:1"
       d="m 43.176846,257.23708 h 19.328256 c 0.678737,0 1.199258,0.74403 1.225157,1.66741 v 17.66414 l 7.078563,7.75488 c 0.55544,0.60851 -0.546421,1.6674 -1.225159,1.6674 H 36.098284 c -0.678737,0 -1.225157,-1.20553 -1.225157,-1.6674 l 7.078562,-7.75488 v -17.66414 c 0,-0.46187 0.546419,-1.66741 1.225157,-1.66741 z"
       id="rect4491"
       inkscape:connector-curvature="0"
       sodipodi:nodetypes="ssscssszzzs" />
    <rect
       style="opacity:1;fill:url(#radialGradient4551);fill-opacity:1;stroke:none;stroke-width:0.24773139;stroke-linecap:round;stroke-linejoin:miter;stroke-miterlimit:10;stroke-dasharray:none;stroke-opacity:1"
       id="rect4485"
       width="94.137924"
       height="54.500908"
       x="5.8477044"
       y="212.08745"
       ry="1.0895112" />
    <rect
       ry="0.55151594"
       y="213.40349"
       x="7.0863557"
       height="49.546284"
       width="91.660622"
       id="rect4487"
       style="opacity:1;fill:url(#radialGradient4543);fill-opacity:1;stroke:none;stroke-width:0.24773139;stroke-linecap:round;stroke-linejoin:miter;stroke-miterlimit:10;stroke-dasharray:none;stroke-opacity:0.58823529" />
    <rect
       style="opacity:0.86799999;fill:url(#linearGradient4535);fill-opacity:1;stroke:none;stroke-width:0.39566845;stroke-linecap:round;stroke-linejoin:miter;stroke-miterlimit:10;stroke-dasharray:none;stroke-opacity:1"
       id="rect4525"
       width="35.93869"
       height="0.24773139"
       x="35.016899"
       y="284.44156"
       ry="0.098410413" />
    <path
       style="opacity:0.25;fill:url(#linearGradient4584);fill-opacity:1;stroke:none;stroke-width:1.11990833;stroke-linecap:round;stroke-linejoin:miter;stroke-miterlimit:10;stroke-dasharray:none;stroke-opacity:1"
       d="m 75.272233,212.08721 -17.653371,54.50091 h 41.126969 c 0.686772,0 1.239802,-0.48556 1.239802,-1.08914 v -52.32214 c 0,-0.60359 -0.55303,-1.08963 -1.239802,-1.08963 z"
       id="rect4555"
       inkscape:connector-curvature="0" />
    <g
       id="g4818"
       transform="matrix(0.61645791,0,0,0.61645791,35.247497,105.29697)">
      <g
         id="g4650"
         transform="matrix(0.78548895,0,0,0.78548895,21.789184,55.583874)"
         style="stroke:#00d655;stroke-width:0.33683902;stroke-miterlimit:7;stroke-dasharray:none;stroke-opacity:1;filter:url(#filter4808)">
        <path
           sodipodi:nodetypes="ccccc"
           inkscape:connector-curvature="0"
           id="path4646"
           transform="matrix(0.26458333,0,0,0.26458333,0,191.16665)"
           d="m 377.69531,251.61523 c -1.58703,0.72181 -2.60682,2.30341 -2.60937,4.04688 -10e-5,2.45943 1.99369,4.45322 4.45312,4.45312 2.45943,10e-5 4.45323,-1.99369 4.45313,-4.45312 -0.002,-1.74417 -1.02171,-3.32673 -2.60938,-4.04883"
           style="opacity:1;fill:none;fill-opacity:1;stroke:#00d655;stroke-width:1.27309239;stroke-linecap:round;stroke-linejoin:miter;stroke-miterlimit:7;stroke-dasharray:none;stroke-opacity:1" />
        <path
           inkscape:connector-curvature="0"
           id="path4648"
           d="m 100.44245,257.30915 v 1.43704"
           style="fill:#00ff66;fill-rule:evenodd;stroke:#00d655;stroke-width:0.33683902;stroke-linecap:round;stroke-linejoin:round;stroke-miterlimit:7;stroke-dasharray:none;stroke-opacity:1" />
      </g>
      <g
         style="stroke:#7cffb1;stroke-width:0.33683902;stroke-miterlimit:7;stroke-dasharray:none;stroke-opacity:1"
         transform="matrix(0.78548895,0,0,0.78548895,21.789184,55.583874)"
         id="g4644">
        <path
           style="opacity:1;fill:none;fill-opacity:1;stroke:#7cffb1;stroke-width:1.27309239;stroke-linecap:round;stroke-linejoin:miter;stroke-miterlimit:7;stroke-dasharray:none;stroke-opacity:1"
           d="m 377.69531,251.61523 c -1.58703,0.72181 -2.60682,2.30341 -2.60937,4.04688 -10e-5,2.45943 1.99369,4.45322 4.45312,4.45312 2.45943,10e-5 4.45323,-1.99369 4.45313,-4.45312 -0.002,-1.74417 -1.02171,-3.32673 -2.60938,-4.04883"
           transform="matrix(0.26458333,0,0,0.26458333,0,191.16665)"
           id="path4635"
           inkscape:connector-curvature="0"
           sodipodi:nodetypes="ccccc" />
        <path
           style="fill:#00ff66;fill-rule:evenodd;stroke:#7cffb1;stroke-width:0.33683902;stroke-linecap:round;stroke-linejoin:round;stroke-miterlimit:7;stroke-dasharray:none;stroke-opacity:1"
           d="m 100.44245,257.30915 v 1.43704"
           id="path4640"
           inkscape:connector-curvature="0" />
      </g>
    </g>
    <path
       style="display:inline;opacity:1;fill:#d5f6ff;fill-opacity:1;fill-rule:evenodd;stroke:none;stroke-width:0.01641909px;stroke-linecap:butt;stroke-linejoin:miter;stroke-opacity:1"
       d="m 51.440465,263.5814 0.06709,0.24034 -0.166591,-0.16046 0.08329,0.16967 -0.104508,-0.10843 0.123593,0.23992 -0.166333,-0.11652 0.193122,0.2744 -0.234741,-0.01 0.282913,0.16363 -0.229193,0.0321 0.244972,0.10569 -0.07165,0.0333 0.113791,0.0729 -9.36e-4,0.0393 0.111866,0.0504 -0.01612,0.0433 0.08769,0.0423 -0.01187,0.0369 0.108303,-0.0135 -0.0051,0.0996 0.09125,-0.007 0.03101,0.0887 0.09074,-0.007 -0.0026,0.0633 0.06533,-0.0195 0.01135,0.0471 0.04889,-0.0244 0.04409,0.0822 0.03251,-0.0358 0.05263,0.069 0.02598,-0.008 0.03981,0.0492 0.03676,-0.0371 0.04033,0.0605 0.05441,-0.0454 0.01411,0.0514 0.0645,-0.0867 0.02823,0.0605 0.05138,-0.0212 0.05042,0.0756 -0.243908,0.13303 -0.172341,0.13204 0.07157,0.0322 0.13805,-0.0655 -0.147133,0.21363 0.128997,-0.0483 -0.02719,0.1653 0.158227,-0.0887 -0.0051,0.18544 0.117931,-0.11287 0.0524,0.1703 0.0887,-0.12394 0.03326,0.14705 v 0.002 l 0.002,-5.8e-4 0.002,5.8e-4 v -0.002 l 0.03326,-0.14705 0.0887,0.12394 0.05239,-0.1703 0.117931,0.11287 -0.0051,-0.18544 0.158228,0.0887 -0.02719,-0.1653 0.128997,0.0483 -0.147162,-0.21363 0.138079,0.0655 0.07157,-0.0322 -0.172339,-0.13204 -0.243909,-0.13303 0.05041,-0.0756 0.05138,0.0212 0.02823,-0.0605 0.0645,0.0867 0.01411,-0.0514 0.05441,0.0454 0.04033,-0.0605 0.03676,0.0371 0.03981,-0.0492 0.02598,0.008 0.05263,-0.069 0.03251,0.0358 0.04409,-0.0822 0.04889,0.0244 0.01135,-0.0471 0.06533,0.0195 -0.0026,-0.0633 0.09074,0.007 0.03101,-0.0887 0.09125,0.007 -0.0051,-0.0996 0.108302,0.0135 -0.01187,-0.0369 0.08769,-0.0423 -0.01612,-0.0433 0.111866,-0.0504 -9.36e-4,-0.0393 0.113791,-0.0729 -0.07166,-0.0333 0.244972,-0.10569 -0.229192,-0.0321 0.282912,-0.16363 -0.23474,0.01 0.19312,-0.2744 -0.166332,0.11652 0.123592,-0.23992 -0.104507,0.10843 0.08329,-0.16967 -0.166592,0.16046 0.06709,-0.24034 -0.593562,0.6019 0.01894,-0.13018 -0.249485,0.27653 -0.26607,0.1169 -0.113015,-0.0109 -0.131267,0.0634 -0.03386,-0.12212 -0.107842,-0.0664 -0.107842,0.0664 -0.03386,0.12212 -0.131267,-0.0634 -0.113016,0.0109 -0.266069,-0.1169 -0.249484,-0.27653 0.01894,0.13018 z"
       id="path5786"
       inkscape:connector-curvature="0"
       sodipodi:nodetypes="ccccccccccccccccccccccccccccccccccccccccccccccccccccccccccccccccccccccccccccccccccccccccccccccccccccccccccccccccccccccccccccccc" />
    <path
       style="fill:url(#linearGradient5673);fill-opacity:1;fill-rule:evenodd;stroke:none;stroke-width:0.24773139px;stroke-linecap:butt;stroke-linejoin:miter;stroke-opacity:1"
       d="m 26.382421,255.56404 c 0,0 18.954873,-2.32506 18.634388,-11.26469 -0.320486,-8.93961 1.127808,-6.4769 4.545685,-9.49817 3.417876,-3.02129 3.345394,-4.86971 12.747681,-5.35099 9.402288,-0.48129 13.251959,-5.22399 12.962058,-17.36298 6.982953,11.80884 0.09255,17.93832 -3.74426,20.2491 -4.379313,2.27724 -10.413546,0.49046 -15.001278,7.30894 -2.832621,4.20996 -0.731261,5.53878 -3.758501,9.83801 -1.944504,2.76154 -6.270636,4.47302 -10.729969,5.55043 -4.459333,1.07742 -15.655804,0.53035 -15.655804,0.53035 z"
       id="path5657"
       inkscape:connector-curvature="0"
       sodipodi:nodetypes="cszzccsszc" />
    <path
       sodipodi:type="inkscape:offset"
       inkscape:radius="-0.63156766"
       inkscape:original="M 76.792969 202.54102 C 77.10259 215.50576 72.991097 220.57191 62.949219 221.08594 C 52.907341 221.59996 52.984361 223.57397 49.333984 226.80078 C 45.683606 230.02758 44.136229 227.39758 44.478516 236.94531 C 44.820802 246.49305 24.578125 249.50391 24.578125 249.50391 C 24.578125 249.50391 36.536149 249.55891 41.298828 248.4082 C 46.061507 247.2575 50.681033 245.42987 52.757812 242.48047 C 55.99098 237.88879 53.746174 236.47095 56.771484 231.97461 C 61.671297 224.6923 68.117706 226.60012 72.794922 224.16797 C 76.892736 221.7 84.250937 215.15315 76.792969 202.54102 z "
       style="opacity:0.5;fill:url(#linearGradient5687);fill-opacity:1;fill-rule:evenodd;stroke:none;stroke-width:0.26458332px;stroke-linecap:butt;stroke-linejoin:miter;stroke-opacity:1"
       id="path5675"
       d="m 77.369141,205.18555 c -0.146639,5.13195 -1.080084,9.00604 -3.113282,11.67968 -2.379956,3.12964 -6.1511,4.58936 -11.273437,4.85157 -4.979635,0.25489 -7.3632,0.87036 -8.925781,1.75781 -1.562581,0.88745 -2.429966,2.14164 -4.304688,3.79883 -0.96108,0.84956 -1.80358,1.32574 -2.462891,1.68554 -0.65931,0.35981 -1.096986,0.59934 -1.398437,0.95313 -0.301451,0.35379 -0.540499,0.87696 -0.685547,1.95703 -0.145048,1.08008 -0.180702,2.68179 -0.0957,5.05274 0.0936,2.61086 -1.240952,4.78507 -3.179687,6.48828 -1.938736,1.70321 -4.494838,2.99532 -7.044922,3.98437 -1.435721,0.55684 -2.836652,0.99551 -4.160157,1.36914 0.215356,-0.007 0.183863,1.9e-4 0.404297,-0.008 3.570513,-0.12957 7.759668,-0.41446 10.021485,-0.96094 4.704908,-1.13674 9.198133,-2.98839 11.091797,-5.67773 1.559352,-2.21456 1.756436,-3.53374 1.976562,-5.01758 0.220126,-1.48384 0.459089,-3.14481 2.029297,-5.47852 2.535779,-3.76878 5.569007,-5.21983 8.458984,-5.97851 2.882952,-0.75684 5.608597,-0.90672 7.779297,-2.0293 1.97937,-1.19491 4.713954,-3.36517 6.054688,-6.6914 1.164408,-2.88879 1.180113,-6.7531 -1.171875,-11.73633 z"
       transform="matrix(0.93630767,0,0,0.93630767,3.0898595,22.165783)" />
    <path
       style="fill:url(#linearGradient5743);fill-opacity:1;fill-rule:evenodd;stroke:none;stroke-width:0.11651795px;stroke-linecap:butt;stroke-linejoin:miter;stroke-opacity:1;filter:url(#filter5777)"
       d="m 76.191159,210.56323 c -1.188328,0.0455 -2.153588,0.85973 -2.153588,0.85973 l -32.049108,26.96233 -0.03639,0.3106 c -0.0012,-0.18973 0.03639,-0.3106 0.03639,-0.3106 0,0 -5.989591,0.50125 -8.474081,4.05317 -1.540816,2.2028 -3.56e-4,2.90768 -2.619742,4.49371 -2.619386,1.58602 -6.317329,2.11477 -6.317329,2.11477 0,0 15.070217,0.78217 19.876387,-2.02672 4.806167,-2.80889 4.468535,-6.34404 4.468535,-6.34404 0,0 -0.433903,0.13631 -1.096832,0.24818 l 1.096832,-0.24818 28.197014,-28.10763 c 0,0 1.461715,-1.40973 -0.0791,-1.89434 -0.288902,-0.0909 -0.574762,-0.12146 -0.848991,-0.11098 z"
       id="path5724"
       inkscape:connector-curvature="0"
       transform="matrix(0.93630767,0,0,0.93630767,3.3703857,22.446382)" />
    <path
       style="fill:url(#linearGradient5586);fill-opacity:1;fill-rule:evenodd;stroke:none;stroke-width:0.14137897px;stroke-linecap:butt;stroke-linejoin:miter;stroke-opacity:1"
       d="m 42.358241,238.45719 29.406832,-43.26198 c 0,0 1.34125,-1.9793 2.755039,-1.20171 1.413788,0.77758 0.07254,3.03965 0.07254,3.03965 l -25.872353,45.09989 -6.78619,2.6862 0.424136,-6.36205"
       id="path5560"
       inkscape:connector-curvature="0"
       sodipodi:nodetypes="cczcccc" />
    <path
       sodipodi:type="inkscape:offset"
       inkscape:radius="-0.38791201"
       inkscape:original="M 278.72852 10.376953 C 276.80637 10.505485 274.996 11.748462 273.67578 12.988281 C 272.35557 14.228101 271.54102 15.431641 271.54102 15.431641 L 160.45117 178.85938 L 159.42188 194.30273 L 280.50391 10.623047 C 279.90116 10.433151 279.30606 10.338333 278.72852 10.376953 z "
       style="fill:url(#linearGradient5850);fill-opacity:1;fill-rule:evenodd;stroke:none;stroke-width:0.53434569px;stroke-linecap:butt;stroke-linejoin:miter;stroke-opacity:1;opacity:0.25"
       id="path5833"
       d="m 278.75391,10.763672 c -1.77222,0.118506 -3.52697,1.300567 -4.8125,2.507812 -1.28694,1.208569 -2.08008,2.376954 -2.08008,2.376954 a 0.3879508,0.3879508 0 0 1 0,0.002 L 160.83203,178.99023 159.90625,192.86328 279.8457,10.916016 c -0.36994,-0.07604 -0.74567,-0.175489 -1.09179,-0.152344 z"
       transform="matrix(0.26458333,0,0,0.26458333,0,191.16665)" />
    <path
       sodipodi:nodetypes="cczcczc"
       inkscape:connector-curvature="0"
       id="path5578"
       d="m 42.358241,238.45719 3.165009,-4.65464 c 0,0 -0.266277,2.13134 2.197196,3.20885 2.463473,1.07749 3.677079,0.45041 3.677079,0.45041 l -2.67723,4.67123 c 0,0 -4.530149,3.0225 -5.751145,2.23591 -1.220996,-0.7866 -0.610909,-5.91176 -0.610909,-5.91176"
       style="fill:url(#linearGradient5594);fill-opacity:1;fill-rule:evenodd;stroke:url(#linearGradient5722);stroke-width:0.14137897px;stroke-linecap:butt;stroke-linejoin:miter;stroke-opacity:1" />
    <path
       style="fill:url(#radialGradient5576);fill-opacity:1;fill-rule:evenodd;stroke:none;stroke-width:0.14137897px;stroke-linecap:butt;stroke-linejoin:miter;stroke-opacity:1"
       d="m 26.382417,255.56404 c 0,0 13.82794,1.25525 18.237888,-3.25172 4.409947,-4.50697 4.099991,-10.17928 4.099991,-10.17928 0,0 -2.544821,1.41378 -4.665507,0 -2.120684,-1.41379 -1.696547,-3.67585 -1.696547,-3.67585 0,0 -5.496174,0.80426 -7.775843,6.50342 -1.41379,3.53448 -1e-6,4.66551 -2.403443,7.21034 -2.403443,2.54482 -5.796539,3.39309 -5.796539,3.39309 z"
       id="path5558"
       inkscape:connector-curvature="0"
       sodipodi:nodetypes="czcscssc" />
    <path
       sodipodi:type="inkscape:offset"
       inkscape:radius="0.088974461"
       inkscape:original="M 39.226562 246.17773 C 37.034248 246.10763 37.042179 252.63827 34.734375 251.48438 C 33.428316 250.83133 36.198817 247.64305 33.933594 247.48633 C 33.707576 249.20541 33.869643 250.38252 32.179688 252.17188 C 29.776246 254.71669 26.382812 255.56445 26.382812 255.56445 C 26.382812 255.56445 40.211145 256.81948 44.621094 252.3125 C 45.026938 251.89774 45.390886 251.47216 45.720703 251.04297 C 45.690073 251.05687 45.661849 251.07224 45.630859 251.08594 C 41.896932 252.01943 44.173982 248.68555 41.980469 248.68555 C 40.596381 248.68555 39.419773 251.42962 38.033203 250.73633 C 36.646633 250.04304 41.631247 246.47533 39.332031 246.1875 C 39.296101 246.1825 39.261367 246.18069 39.226562 246.17969 L 39.226562 246.17773 z "
       style="fill:url(#linearGradient5621);fill-opacity:1;fill-rule:evenodd;stroke:none;stroke-width:0.14137897px;stroke-linecap:butt;stroke-linejoin:miter;stroke-opacity:1"
       id="path5602"
       d="m 39.228516,246.08789 c -0.296092,-0.009 -0.558315,0.0957 -0.785157,0.27539 -0.226842,0.1797 -0.42049,0.43249 -0.595703,0.73047 -0.350426,0.59595 -0.626392,1.37258 -0.90625,2.11133 -0.279857,0.73875 -0.566171,1.43983 -0.910156,1.87109 -0.171992,0.21563 -0.354942,0.36285 -0.556641,0.42383 -0.201698,0.061 -0.4277,0.041 -0.701171,-0.0957 -0.14468,-0.0723 -0.224458,-0.1713 -0.271485,-0.30274 -0.04703,-0.13144 -0.05664,-0.29753 -0.03711,-0.48633 0.03906,-0.37759 0.19051,-0.84077 0.314453,-1.29296 0.123943,-0.4522 0.225652,-0.89423 0.138672,-1.25782 -0.04349,-0.18179 -0.139466,-0.34471 -0.300781,-0.46093 -0.161316,-0.11623 -0.383598,-0.18473 -0.677735,-0.20508 a 0.08898336,0.08898336 0 0 0 -0.09375,0.0762 c -0.227419,1.72973 -0.05584,2.86358 -1.730469,4.63672 -2.381509,2.52159 -5.753906,3.36719 -5.753906,3.36719 a 0.08898336,0.08898336 0 0 0 0.01367,0.17382 c 0,0 3.462405,0.31456 7.478516,0.0645 4.01611,-0.2501 8.591656,-1.05213 10.832031,-3.3418 0.408526,-0.4175 0.773698,-0.84561 1.105469,-1.27734 a 0.08898336,0.08898336 0 0 0 -0.107422,-0.13477 c -0.03283,0.0149 -0.05832,0.0275 -0.08398,0.0391 -0.0012,5.5e-4 -0.0027,0.001 -0.0039,0.002 -0.914014,0.22658 -1.446502,0.18566 -1.759765,0.0215 -0.315021,-0.1651 -0.437661,-0.46055 -0.521485,-0.81055 -0.08382,-0.35 -0.120176,-0.74385 -0.285156,-1.06445 -0.16498,-0.3206 -0.477912,-0.55469 -1.048828,-0.55469 -0.375422,0 -0.724614,0.18552 -1.058594,0.4375 -0.33398,0.25199 -0.655935,0.57484 -0.974609,0.87305 -0.318675,0.29821 -0.634378,0.57071 -0.945313,0.72266 -0.310935,0.15195 -0.608546,0.18791 -0.929687,0.0273 -0.150134,-0.0751 -0.196517,-0.16462 -0.197266,-0.30273 -7.49e-4,-0.13812 0.06303,-0.32533 0.177734,-0.53711 0.229409,-0.42357 0.649417,-0.94281 1.042969,-1.45118 0.393553,-0.50836 0.761507,-1.00261 0.892578,-1.41601 0.06554,-0.2067 0.07185,-0.40597 -0.03516,-0.5625 -0.107011,-0.15653 -0.308767,-0.24948 -0.609375,-0.28711 -0.03317,-0.005 -0.06368,-0.007 -0.09375,-0.008 a 0.08898336,0.08898336 0 0 0 -0.01758,-0.002 0.08898336,0.08898336 0 0 0 -0.0039,-0.002 z" />
    <path
       sodipodi:type="inkscape:offset"
       inkscape:radius="-0.043921202"
       inkscape:original="M 45.580078 229.69531 C 43.516656 230.26155 43.105432 232.8633 42.310547 234.5293 C 41.455286 236.4403 40.930755 239.26952 38.587891 239.86133 C 37.111246 240.11805 35.706539 238.72961 36.148438 237.23438 C 36.250628 235.64513 37.54407 233.96136 36.757812 232.44531 C 35.829484 231.70557 36.269395 233.55832 36.048828 234.0957 C 35.795696 238.93593 31.719035 242.39944 27.841797 244.69141 C 26.728091 245.33182 25.568635 245.89146 24.376953 246.37109 C 33.079609 246.66119 42.090185 246.58594 50.337891 243.49023 C 52.690521 242.56313 54.890174 241.13986 56.509766 239.12109 C 54.87589 239.53634 52.905174 238.68783 52.705078 236.87305 C 52.569971 235.7241 52.188536 234.01237 50.619141 234.41211 C 48.098138 235.12907 46.883966 238.60671 44.007812 238.40625 C 42.66391 238.38195 42.084696 236.8184 42.839844 235.79688 C 43.818866 233.7151 46.033816 232.25263 46.537109 229.98242 C 46.3542 229.70298 45.875168 229.70648 45.580078 229.69531 z "
       style="opacity:0.8;fill:url(#linearGradient5643);fill-opacity:1;fill-rule:evenodd;stroke:none;stroke-width:0.26458332px;stroke-linecap:butt;stroke-linejoin:miter;stroke-opacity:1"
       id="path5623"
       d="m 45.589844,229.73828 c -1.014779,0.27921 -1.622802,1.05669 -2.080078,1.98047 -0.457551,0.92433 -0.760155,1.99172 -1.160157,2.83008 -0.425237,0.9508 -0.76942,2.13731 -1.302734,3.16211 -0.533732,1.0256 -1.260475,1.89357 -2.447266,2.19336 a 0.04392559,0.04392559 0 0 1 -0.0039,0 c -1.507605,0.2621 -2.941398,-1.15507 -2.490234,-2.68164 0.05396,-0.80238 0.402783,-1.61945 0.638672,-2.42188 0.235817,-0.80218 0.358056,-1.58561 -0.02148,-2.32617 -0.109065,-0.0857 -0.198108,-0.13419 -0.263672,-0.15039 -0.06734,-0.0166 -0.108495,-0.005 -0.144531,0.0254 -0.07207,0.0607 -0.116252,0.2297 -0.132812,0.44531 -0.01656,0.21561 -0.01132,0.47396 -0.01563,0.71289 -0.0043,0.23628 -0.0155,0.4524 -0.07422,0.59961 -6.61e-4,0.002 -0.0013,0.004 -0.002,0.006 -0.262372,4.85543 -4.348448,8.32275 -8.226563,10.61524 -1.056919,0.60775 -2.155658,1.14236 -3.283203,1.60546 8.639143,0.2821 17.567367,0.18359 25.742188,-2.88476 2.307781,-0.90943 4.46267,-2.29944 6.068359,-4.25781 -0.792397,0.16799 -1.647589,0.0519 -2.341797,-0.32032 -0.731816,-0.39237 -1.284466,-1.07092 -1.386719,-1.99218 v -0.002 c -0.06735,-0.57191 -0.198118,-1.28244 -0.5,-1.79297 -0.151101,-0.25553 -0.343132,-0.46059 -0.591797,-0.57812 -0.248664,-0.11753 -0.554782,-0.14876 -0.939453,-0.0508 -1.244314,0.35387 -2.17433,1.39441 -3.154297,2.33008 -0.979059,0.9348 -2.014796,1.76373 -3.46875,1.66406 -0.688861,-0.0125 -1.187908,-0.42156 -1.412109,-0.95703 -0.223374,-0.5335 -0.178121,-1.19207 0.205078,-1.71485 l 0.0039,-0.006 c 0.493498,-1.04608 1.29077,-1.93324 2.027343,-2.83984 0.733666,-0.90302 1.403578,-1.82471 1.65625,-2.93945 -0.0839,-0.1153 -0.229642,-0.17799 -0.396484,-0.21094 -0.169134,-0.0334 -0.353237,-0.0377 -0.5,-0.043 z"
       transform="matrix(0.53434574,0,0,0.53434574,14.789341,123.72537)" />
    <path
       inkscape:connector-curvature="0"
       style="opacity:0.15;fill:url(#linearGradient5703);fill-opacity:1;fill-rule:evenodd;stroke:none;stroke-width:0.14137897px;stroke-linecap:butt;stroke-linejoin:miter;stroke-opacity:1"
       d="m 41.749883,239.28589 c -1.421213,0.37955 -4.852033,1.69077 -6.545044,5.9233 -0.328918,0.82229 -0.492643,1.48911 -0.590299,2.08636 0.06296,0.0172 0.123053,0.0379 0.171767,0.0731 0.218962,0.15787 0.357214,0.3944 0.413208,0.62901 0.111992,0.46922 -0.01392,0.93849 -0.1408,1.40075 -0.126863,0.46226 -0.273297,0.92033 -0.307244,1.24736 -0.01697,0.16351 -0.0036,0.2874 0.02178,0.35853 0.02542,0.0711 0.04545,0.10064 0.129672,0.14274 0.224665,0.11234 0.360566,0.11461 0.486753,0.0765 0.126184,-0.0382 0.265969,-0.14009 0.415143,-0.32708 0.29835,-0.37397 0.585989,-1.05689 0.864642,-1.79219 0.278651,-0.73528 0.554851,-1.52237 0.927541,-2.15603 0.186341,-0.31684 0.398932,-0.59938 0.66723,-0.8119 0.26784,-0.21217 0.605931,-0.34801 0.973022,-0.33676 h 0.002 c 0.052,0.001 0.09848,0.008 0.1408,0.0131 h 0.0015 c 0.342749,0.0432 0.636912,0.15738 0.810451,0.41128 0.17385,0.25436 0.152922,0.56033 0.07306,0.8119 -0.159723,0.50312 -0.545124,0.99347 -0.941573,1.50525 -0.396452,0.51178 -0.810255,1.03034 -1.017054,1.41188 -0.1034,0.19077 -0.144459,0.34632 -0.144187,0.39869 2.48e-4,0.0524 -0.03457,0.008 0.04016,0.0455 0.238186,0.11909 0.411843,0.0975 0.671099,-0.029 0.259254,-0.12653 0.56185,-0.37969 0.87577,-0.67303 0.313918,-0.29335 0.64048,-0.6242 0.998668,-0.89416 0.358184,-0.26994 0.763302,-0.49401 1.234301,-0.49401 0.644184,0 1.104694,0.31705 1.307363,0.71126 0.202669,0.39421 0.2302,0.80579 0.307247,1.12834 0.07704,0.32256 0.158669,0.50939 0.373048,0.62175 0.169796,0.089 0.503059,0.14049 1.075115,0.0484 2.372851,-2.97629 2.886599,-6.21121 2.98826,-7.74354 -0.986972,0.37912 -2.577226,0.79787 -4.3503,-0.38417 -1.692414,-1.12828 -1.909075,-2.49338 -1.932981,-3.40292 z"
       id="path5689" />
  </g>
</svg>
