<?xml version="1.0" encoding="UTF-8" standalone="no"?>
<!-- Created with Inkscape (http://www.inkscape.org/) -->

<svg
   xmlns:dc="http://purl.org/dc/elements/1.1/"
   xmlns:cc="http://creativecommons.org/ns#"
   xmlns:rdf="http://www.w3.org/1999/02/22-rdf-syntax-ns#"
   xmlns:svg="http://www.w3.org/2000/svg"
   xmlns="http://www.w3.org/2000/svg"
   xmlns:xlink="http://www.w3.org/1999/xlink"
   xmlns:sodipodi="http://sodipodi.sourceforge.net/DTD/sodipodi-0.dtd"
   xmlns:inkscape="http://www.inkscape.org/namespaces/inkscape"
   width="210mm"
   height="297mm"
   viewBox="0 0 744.09448819 1052.3622047"
   id="svg5378"
   version="1.1"
   inkscape:version="0.92.1 r15371"
   sodipodi:docname="drawing.svg"
   inkscape:export-filename="C:\Users\Jonathan\Projects\JByrdDesignsWeb\src\images\drawing.png"
   inkscape:export-xdpi="96"
   inkscape:export-ydpi="96">
  <defs
     id="defs5380">
    <linearGradient
       inkscape:collect="always"
       id="linearGradient4487">
      <stop
         style="stop-color:#aaffee;stop-opacity:1;"
         offset="0"
         id="stop4483" />
      <stop
         style="stop-color:#aaffee;stop-opacity:0;"
         offset="1"
         id="stop4485" />
    </linearGradient>
    <linearGradient
       inkscape:collect="always"
       xlink:href="#linearGradient4487"
       id="linearGradient4489"
       x1="21.199127"
       y1="381.06302"
       x2="572.16473"
       y2="381.06302"
       gradientUnits="userSpaceOnUse" />
  </defs>
  <sodipodi:namedview
     id="base"
     pagecolor="#878787"
     bordercolor="#666666"
     borderopacity="1.0"
     inkscape:pageopacity="0"
     inkscape:pageshadow="2"
     inkscape:zoom="0.7"
     inkscape:cx="280.59943"
     inkscape:cy="664.80029"
     inkscape:document-units="px"
     inkscape:current-layer="layer1"
     showgrid="false"
     inkscape:window-width="958"
     inkscape:window-height="1008"
     inkscape:window-x="2873"
     inkscape:window-y="0"
     inkscape:window-maximized="0" />
  <metadata
     id="metadata5383">
    <rdf:RDF>
      <cc:Work
         rdf:about="">
        <dc:format>image/svg+xml</dc:format>
        <dc:type
           rdf:resource="http://purl.org/dc/dcmitype/StillImage" />
        <dc:title />
      </cc:Work>
    </rdf:RDF>
  </metadata>
  <g
     inkscape:label="Layer 1"
     inkscape:groupmode="layer"
     id="layer1">
    <path
       style="opacity:0.2;fill:url(#linearGradient4489);fill-opacity:1;stroke:#aaeeff;stroke-width:1.0629921;stroke-miterlimit:4;stroke-dasharray:none;stroke-opacity:0"
       d="M 337.96875 13.832031 C 337.92895 13.829013 337.88125 13.833964 337.82617 13.847656 C 328.41502 16.187033 323.18437 19.91359 316.69531 25.841797 C 297.78231 42.886953 280.273 61.439358 263.51172 80.587891 C 249.77701 96.806653 236.09891 113.1329 224.23828 130.80273 L 237.8418 124.70508 C 248.74764 107.30186 261.82024 91.439053 274.97656 75.722656 C 289.60808 58.968778 304.93896 42.766324 321.43164 27.830078 C 314.03212 43.81037 306.30489 59.688817 300.19336 76.222656 C 298.48889 80.833859 297.01379 85.527759 295.42383 90.179688 C 289.25421 109.43198 284.73881 129.18403 281.50195 149.13086 C 272.42968 146.38537 264.38774 144.6133 254.37891 142.17773 C 240.04776 139.38112 232.71185 137.66679 218.19922 135.95703 C 214.43623 135.51371 210.66468 135.1554 206.89062 134.86914 C 207.27656 131.94679 207.42916 128.99079 207.23828 125.99023 C 207.19033 125.63534 206.42896 119.66394 205.1875 120.125 C 197.53582 122.9667 192.91739 124.98206 188.0918 130.0293 C 186.90164 131.40026 185.72897 132.79088 184.55273 134.17773 C 175.53357 134.32211 166.52907 135.00372 157.58398 136.30859 C 158.12116 134.42038 158.66298 132.53072 159.19531 130.6582 C 160.15295 128.01529 161.01203 125.33551 162.06836 122.73047 C 167.35502 109.69294 175.02214 97.786523 183.02734 86.285156 C 191.60357 74.648186 200.57305 63.224031 211.68359 53.857422 C 213.40952 52.498692 215.09236 51.083448 216.86133 49.78125 C 217.93933 48.987703 220.52474 47.516547 221.60742 46.791016 C 222.16837 46.555969 222.74866 46.366037 223.31836 46.152344 L 235.13672 36.970703 C 231.73468 38.143577 228.52449 39.837722 225.41602 41.632812 C 217.7919 46.035623 210.50351 49.743863 203.6543 54.978516 C 201.92679 56.298801 200.2885 57.732833 198.60547 59.109375 C 187.61806 68.605182 178.78862 80.103297 170.29688 91.789062 C 164.00191 101.02537 157.84007 110.44242 153.01562 120.55273 C 149.64342 127.61966 149.31347 129.14939 146.70703 136.49023 C 146.50646 137.1154 146.32211 137.74455 146.12695 138.37109 C 141.1253 139.54914 136.07882 140.56222 131.16211 142.05078 C 115.86622 146.68172 106.5251 152.08521 91.851562 160.64844 C 87.578203 163.1423 83.442127 165.9014 79.564453 168.97461 C 78.871061 169.52415 78.265174 170.0385 77.636719 170.5625 C 70.91288 167.24548 64.676014 162.87379 59.697266 157.62695 C 57.643839 155.46296 55.982307 152.95949 54.125 150.625 C 50.014618 143.6974 48.67815 142.26937 46.078125 134.58398 C 42.247141 123.26 42.286476 111.29271 43.941406 99.576172 C 44.53343 96.621206 44.994857 93.636877 45.716797 90.710938 C 49.080633 77.077687 55.278011 64.287261 63.765625 53.119141 C 67.90184 47.833012 72.006412 42.682301 77.021484 38.183594 C 78.344775 36.996552 79.734893 35.883279 81.146484 34.802734 C 81.359331 34.639804 81.726795 34.401483 82.054688 34.181641 C 87.934997 32.01218 94.224861 31.515174 100.33984 32.988281 C 109.5311 35.260968 118.38788 38.546748 125.45312 45.105469 C 126.41283 46.063491 127.43867 46.960299 128.33203 47.980469 C 132.26358 52.470087 134.30056 57.957755 134.08984 63.921875 C 133.91659 65.189158 133.83893 66.47406 133.57031 67.724609 C 131.93122 75.35553 127.7119 82.101905 122.55078 87.833984 C 118.83308 91.524366 115.06961 94.946958 110.80664 98.013672 C 109.89483 98.669608 107.85388 99.873129 106.76367 100.57422 C 101.35991 103.17263 95.793913 105.54113 89.808594 106.29688 L 77.789062 115.26172 C 85.155204 114.30418 91.952243 111.23452 98.587891 108.06445 C 110.36022 101.69447 122.44628 95.342844 132.20898 86.025391 C 133.44656 84.844253 134.59133 83.570996 135.7832 82.34375 C 140.95266 76.377909 145.06615 69.340809 146.625 61.515625 C 146.88861 60.192309 146.94521 58.837813 147.10547 57.498047 C 147.20423 51.174238 145.03663 45.304679 140.8418 40.552734 C 139.89615 39.481489 138.8109 38.541898 137.79492 37.537109 C 130.58189 30.875407 121.5559 27.352323 112.23828 24.798828 C 105.72508 23.030132 98.991023 23.359955 92.636719 25.640625 C 91.22295 26.148051 89.875125 26.821258 88.494141 27.412109 C 79.712161 32.073069 71.030277 36.723377 63.769531 43.535156 C 58.905578 48.098346 54.920636 53.347106 50.90625 58.640625 C 42.557052 69.941344 36.560451 82.900598 33.337891 96.585938 C 32.640555 99.547335 32.198577 102.56415 31.628906 105.55273 C 30.025002 117.67282 30.006992 129.43485 34.042969 141.11914 C 36.762316 148.99175 38.062195 150.36174 42.283203 157.48047 C 44.169347 159.86936 45.848584 162.4364 47.941406 164.64648 C 53.869841 170.90707 61.086382 175.53895 68.875 179.04492 C 66.297111 181.95024 63.821652 185.05498 60.498047 188.99414 C 54.407393 198.22056 51.671689 201.31246 47.589844 211.50977 C 42.805988 223.46085 41.664566 236.30942 44.125 248.89844 C 44.763433 251.27615 45.305106 253.68188 46.041016 256.03125 C 48.212857 262.96478 51.424963 269.52983 55.574219 275.48633 L 68.476562 267.86914 C 63.927446 262.34375 60.623942 255.96531 58.373047 249.17773 C 57.614408 246.89005 57.056472 244.53932 56.398438 242.2207 C 53.86746 229.94311 55.04416 217.44112 59.71875 205.7793 C 63.791558 195.61876 66.271142 192.97667 72.408203 183.78125 C 73.180936 182.87984 73.772322 182.16853 74.462891 181.34961 C 77.055244 182.33162 79.686086 183.22811 82.378906 183.87305 C 85.770283 184.68528 89.266532 184.96261 92.710938 185.50781 C 108.07819 186.4855 122.49133 183.61256 136.32812 176.84375 C 137.55037 176.24584 138.90637 175.52403 140.33203 174.73438 C 141.46373 181.3544 144.2679 187.62336 149.53516 192.02344 C 150.65547 192.9593 151.91505 193.71369 153.10547 194.55859 C 156.88913 196.81562 160.93436 198.18591 165.10352 199.10547 C 159.31931 204.24949 153.61386 209.48245 148.01367 214.83008 C 143.22515 219.60454 138.35163 224.29576 133.64844 229.1543 C 125.17784 237.90468 116.80889 247.1468 109.01758 256.52148 C 103.57126 263.0746 99.255473 268.57816 94.736328 275.58984 C 93.573632 277.39383 92.57965 279.30219 91.501953 281.1582 C 91.273505 282.46603 89.515765 285.33868 90.818359 285.08203 C 102.93534 282.69466 110.8241 273.18903 118.98047 265.07812 C 135.51049 248.25713 152.44595 231.70711 166.83789 212.95898 C 170.51821 208.08611 173.19129 204.60497 175.99414 200.74023 C 176.62243 200.80782 177.25062 200.87604 177.87891 200.94141 C 188.54379 202.13482 199.26149 202.68697 209.96289 203.42969 C 221.66264 204.02753 233.1801 206.52097 244.25586 210.29102 C 246.6077 211.09155 248.91335 212.02154 251.24219 212.88672 C 260.82215 217.08945 270.07753 222.61789 277.13672 230.48438 C 281.78572 235.66505 282.48579 237.71062 285.88281 243.77148 C 291.81172 256.67121 294.31657 270.83881 295.00977 284.95117 C 295.1375 287.55099 295.11998 290.15546 295.17578 292.75781 C 295.15138 294.85593 295.07214 296.94998 294.95898 299.03906 C 282.31375 303.05286 269.65696 307.02836 256.95898 310.87109 C 251.81483 312.45139 246.67694 314.06794 241.56641 315.76172 C 225.49059 319.57105 209.53993 323.95855 193.88672 329.22461 C 189.5951 330.66841 185.35568 332.26295 181.08984 333.78125 C 169.4107 338.29755 157.66752 342.86532 146.67383 348.92188 C 137.21242 354.13426 126.59421 359.88717 117.67578 366.54297 C 115.38771 368.25055 113.2601 370.16392 111.05273 371.97461 C 104.84721 377.87936 100.24162 385.0678 97.5625 393.20117 C 96.485094 396.472 96.311144 398.00513 95.708984 401.29297 C 95.047006 407.58242 94.960654 414.02956 96.183594 420.26758 C 96.47065 421.7318 96.915676 423.1608 97.28125 424.60742 C 100.90277 435.76459 108.78019 444.40568 116.8418 452.5957 C 118.63768 454.19896 120.38082 455.86533 122.23047 457.40625 C 125.36951 460.02134 132.37941 465.24246 135.55469 467.63672 C 143.16276 473.37347 150.744 479.09934 158.19727 485.03711 C 171.5968 496.18809 184.55205 508.05624 195.60547 521.58789 C 197.76123 524.22699 199.75773 526.99322 201.83398 529.69531 C 210.06268 541.36699 217.05832 554.04218 221.55859 567.64258 C 224.51435 576.57529 224.82288 579.70058 226.5918 588.83008 C 228.33687 602.06033 227.95205 615.55989 224.76953 628.55664 C 222.628 637.30225 221.38925 639.5113 218.02344 647.85352 C 211.15941 662.95505 201.32047 676.38714 190.31836 688.7168 C 188.04302 691.26669 185.66751 693.72449 183.3418 696.22852 C 180.94021 698.65261 178.57976 701.11768 176.13672 703.5 C 170.40664 709.08767 164.38421 714.2938 158.01367 719.05273 C 154.62379 715.82293 151.34522 712.47321 148.15234 709.04297 C 141.25873 701.84051 134.61393 694.39612 128.48633 686.52539 C 122.43144 678.57345 116.78097 670.29988 110.25195 662.7207 C 104.9227 656.73487 99.226294 651.07794 92.501953 646.64258 C 88.350517 644.04051 84.043829 641.7568 79.367188 640.23828 C 76.50741 639.26525 73.539592 638.38282 70.507812 638.24805 C 69.293768 638.25488 68.279538 638.21167 67.068359 638.4375 C 59.07963 639.92703 52.293501 647.17792 45.304688 649.73047 C 39.057592 654.0558 33.358685 658.98545 29.130859 665.38672 C 25.898226 670.25823 22.332526 675.52956 21.732422 681.49023 C 22.031545 685.92955 24.026348 689.86042 26.496094 693.50781 C 32.610807 702.38917 39.50028 710.7102 47.511719 717.96289 C 49.210418 719.46954 50.865561 721.0259 52.607422 722.48242 C 62.190768 730.49592 72.903273 737.1541 84.890625 740.88867 C 91.787281 742.26269 93.829152 743.00696 100.9668 743.03906 C 113.38511 743.0948 125.41363 739.55516 136.69141 734.60938 C 140.40114 732.53919 144.13199 730.50559 147.84961 728.44922 C 151.19266 731.55996 154.63197 734.56606 158.20312 737.41797 C 164.1596 741.77288 170.65012 745.42022 177.73047 747.55273 C 180.9743 748.42593 184.3585 748.83336 187.37305 747.03516 C 192.18128 744.167 196.91967 741.18505 201.69336 738.25977 C 202.24408 737.65593 202.83868 737.08823 203.3457 736.44727 C 204.63475 734.81767 205.73574 733.04792 206.91602 731.33789 C 208.99888 728.32015 211.03472 725.26974 213.07422 722.22266 C 217.0433 716.05509 220.61907 709.63887 224.62109 703.49414 L 225.62109 701.81445 L 212.05469 707.84375 L 211.13477 709.43945 C 207.37685 715.66551 203.77653 721.99047 199.74609 728.04883 C 197.69059 731.09997 195.6441 734.15864 193.50781 737.1543 C 193.04745 737.79985 192.41932 738.67478 191.77344 739.54102 C 191.13488 739.45098 190.50082 739.34227 189.88086 739.2168 C 182.79474 737.43093 176.28759 734.03798 170.38086 729.75391 C 166.90444 727.0641 163.57299 724.20453 160.34375 721.23242 C 173.53388 712.93116 185.08993 702.28897 195.78711 691.01758 C 201.39491 684.93508 204.16257 682.12745 209.36328 675.70898 C 217.68136 665.44319 224.8754 654.27798 230.25977 642.19141 C 233.49064 633.99651 234.92448 631.21365 236.9707 622.62305 C 240.1006 609.48288 240.297 595.83508 238.42773 582.50391 C 236.73498 574.19044 235.97569 569.2393 233.29297 561.10742 C 228.76576 547.38449 221.5532 534.66862 213.43164 522.79297 C 211.33651 520.0714 209.32046 517.28792 207.14648 514.62891 C 196.0386 501.04281 183.01649 489.15375 169.64258 477.85547 C 167.20461 475.85851 164.79525 473.82693 162.33203 471.86133 C 163.61069 472.35003 164.89422 472.82204 166.21094 473.19141 C 170.64264 474.43461 176.57095 475.35234 181.17383 475.24414 C 190.05046 475.03547 198.46142 471.9812 206.45508 468.39062 C 213.43066 464.46168 220.55825 460.78929 227.38281 456.60352 C 230.55806 454.65601 233.50562 452.34968 236.41016 450.01758 C 249.46474 439.53588 260.30985 426.66841 269.27148 412.57227 C 271.30666 408.97744 273.44708 405.43956 275.37695 401.78711 C 284.90621 383.75216 292.16991 364.55618 297.70703 344.94922 C 298.6886 341.26124 299.7499 337.59291 300.65234 333.88477 C 302.83044 324.93498 304.64327 315.85096 305.875 306.69922 C 307.52231 306.10901 309.159 305.48217 310.78125 304.8125 C 315.25693 302.38386 330.8741 294.40933 337.66406 289.64258 C 338.1219 289.32116 338.57134 288.99001 339.01953 288.6582 C 344.25797 286.68076 349.48342 284.66879 354.69727 282.62695 C 368.06716 277.15744 381.17488 271.03178 393.86523 264.125 C 394.19621 263.94486 394.59025 263.72234 394.9375 263.53125 C 397.2275 263.26837 399.4829 262.9489 401.67578 262.56641 C 415.74161 260.11296 420.96184 257.62468 434.51562 252.85547 C 454.72249 243.93232 474.54985 233.44573 491.30078 218.86328 C 495.60893 215.11285 499.78178 211.1677 503.51172 206.8418 C 512.50784 196.4083 512.76005 193.80672 518.21094 181.92969 C 520.35087 172.17114 523.14811 162.45773 513.83398 155.20117 C 512.74471 154.35253 511.52487 153.64014 510.22852 153.03516 C 519.7004 137.33016 526.32349 120.07401 532.48438 102.7793 C 536.94573 89.782687 541.80254 76.639015 549.50781 65.148438 C 550.79381 63.230662 552.26048 61.44003 553.63672 59.585938 C 558.60509 53.551929 564.29151 48.047325 570.70312 43.550781 C 571.67565 42.868738 572.56303 42.287553 573.42969 41.740234 C 573.35523 41.836966 573.2804 41.935191 573.21289 42.039062 C 572.02293 43.870027 577.1227 40.090686 579.10547 39.175781 C 581.16655 38.224739 583.25134 37.321391 585.34375 36.441406 C 591.54415 33.833756 597.8308 31.61964 604.2207 29.533203 C 614.63207 26.373706 625.46273 24.960828 636.26562 23.96875 C 645.93956 23.107169 655.65134 23.514182 665.26172 24.794922 C 671.81401 26.013839 678.49918 26.884011 684.84766 28.998047 C 689.1016 30.414605 689.64696 30.868281 693.57031 32.857422 C 697.15875 35.043476 700.3396 37.788131 703.54883 40.476562 L 715.88672 32.740234 C 712.51211 30.075837 709.20923 27.308665 705.59961 24.958984 C 701.58466 22.885453 701.01778 22.417757 696.67969 20.90625 C 690.3108 18.687158 683.58479 17.808581 676.99414 16.517578 C 667.34215 15.092105 657.57958 14.659128 647.83789 15.398438 C 636.89818 16.391107 625.93313 17.822087 615.35938 20.896484 C 598.25599 26.366155 581.80416 33.326852 566.60547 43.048828 C 562.87811 45.262242 560.89366 46.317009 557.41211 48.861328 C 551.11912 53.460236 545.58613 59.05785 540.75977 65.158203 C 539.41808 67.04413 537.98667 68.869982 536.73438 70.816406 C 529.27487 82.410463 524.53992 95.541824 520.18359 108.53125 C 515.79716 121.17548 511.17899 133.61088 505.3418 145.45312 C 505.33932 145.30333 505.34891 145.15372 505.34375 145.00391 C 504.95445 133.70133 500.2647 122.63946 493.56445 113.64453 C 491.86174 111.35869 489.84257 109.32568 487.98242 107.16602 C 485.73625 105.23758 483.61897 103.14843 481.24414 101.38086 C 472.96037 95.215285 463.01315 90.708434 453 88.238281 C 450.9814 87.740312 448.91613 87.448285 446.875 87.052734 C 444.54367 86.992884 442.21064 86.769225 439.88086 86.873047 C 429.04366 87.355986 418.18846 90.753827 408.4375 95.474609 C 409.58783 94.111831 410.73818 92.745917 411.88672 91.382812 C 425.32185 75.354892 439.24001 59.608962 450.91992 42.220703 C 452.63102 39.709996 454.26441 37.043105 456.25586 34.732422 C 456.68473 34.234813 457.93869 33.017007 458.42578 32.445312 C 458.6508 32.181197 458.84122 31.88934 459.04883 31.611328 C 461.03415 25.863525 450.32614 30.334734 448.93164 30.679688 C 446.7236 31.538047 444.48584 32.324757 442.30664 33.253906 C 427.04136 39.762577 412.60357 48.156494 398.36328 56.597656 C 393.4155 59.530535 388.53104 62.577957 383.75781 65.787109 C 378.58153 69.267248 373.60443 73.032933 368.52734 76.65625 C 363.37328 80.695917 358.14735 84.646551 353.06445 88.775391 C 332.20772 105.71729 312.60224 124.18451 294.42578 143.97266 C 294.28387 144.12505 294.14182 144.27721 294 144.42969 C 296.4156 124.1821 300.64426 104.15993 306.98828 84.763672 C 308.61542 80.118367 310.12626 75.431256 311.86914 70.828125 C 318.45172 53.442771 326.85213 36.819786 335.33203 20.304688 C 335.9598 19.037676 336.70515 17.822852 337.21484 16.503906 C 337.52173 15.709754 338.56569 13.877302 337.96875 13.832031 z M 337.95117 14.431641 C 337.3326 14.760376 336.77354 15.044975 336.2168 15.328125 C 336.24642 15.308433 336.28532 15.276893 336.31445 15.257812 C 336.82555 14.923124 338.49065 14.14494 337.95117 14.431641 z M 445.40039 37.550781 C 445.35852 37.581744 445.33056 37.604378 445.2793 37.638672 C 442.02544 40.516915 439.9518 44.41559 437.64258 48.037109 C 426.5498 65.146739 413.23573 80.683795 400.22266 96.335938 C 398.22998 98.705006 396.23743 101.08095 394.24219 103.45117 C 382.47941 110.35803 370.99801 117.76701 362.42773 128.5918 C 357.94508 134.25367 355.12086 139.646 352.31445 146.26758 C 351.05673 149.23509 350.10241 152.32239 348.99609 155.34961 C 347.84299 159.67266 346.81472 162.85453 346.22461 166.54102 C 345.66395 167.42701 345.10571 168.31522 344.53906 169.19727 C 342.98514 171.84764 341.46609 174.53451 340.00195 177.25781 C 339.94177 177.21537 339.88247 177.17128 339.82227 177.12891 C 330.26229 170.98945 327.58327 168.95664 317.16016 163.63086 C 309.17427 159.5504 300.98585 155.9083 292.57031 152.82227 C 294.31908 151.71972 296.04795 150.58861 297.73633 149.40234 C 299.20125 148.37308 300.02401 146.64532 301.19727 145.29297 C 303.12628 143.06953 305.09427 140.88197 307.04297 138.67578 C 324.58974 119.06085 343.73865 100.86395 364.17773 84.283203 C 369.25863 80.16143 374.49284 76.232483 379.65039 72.207031 C 395.50053 61.006164 393.67059 61.838062 409.875 52.132812 C 410.65011 51.668582 411.51947 51.381473 412.32812 50.978516 C 415.95417 49.171646 419.52671 47.253711 423.17969 45.501953 C 430.27167 42.101046 431.20394 41.883222 437.88477 39.341797 C 440.96753 38.420435 441.88958 37.975158 444.75 37.595703 C 444.96564 37.567074 445.18263 37.55553 445.40039 37.550781 z M 430.20117 95.054688 C 431.89422 95.047032 433.58959 95.147972 435.2832 95.162109 C 437.32251 95.503012 439.38134 95.740109 441.40039 96.185547 C 451.36511 98.383936 461.34842 102.58708 469.58984 108.64648 C 471.91856 110.35864 473.97989 112.40566 476.17578 114.28516 C 478.00643 116.38602 479.99502 118.35941 481.66797 120.58789 C 488.09653 129.15111 492.39665 139.55272 492.91211 150.30664 C 490.47153 150.51107 488.03961 150.90094 485.59961 151.12109 C 481.91077 152.28639 478.10126 153.12708 474.53125 154.61719 C 465.54949 158.36617 448.58919 169.69982 443.28711 174.04883 C 440.18226 176.59556 437.9526 180.07753 435.65234 183.36914 C 429.80976 191.72974 429.77094 193.61296 426.38672 202.85742 C 425.50357 207.76255 424.91876 211.84057 425.53906 215.83789 C 418.10476 217.07457 413.34819 217.94171 404.5625 217.13086 C 395.99028 216.33972 391.32891 214.73988 383.99414 210.57227 C 381.01588 208.88002 378.10307 207.01884 375.47461 204.82227 C 373.04303 202.79024 371.09227 200.24557 368.90039 197.95703 C 364.44105 191.20641 362.95686 189.98393 360.47266 182.33398 C 357.94018 174.53536 357.65131 167.40677 358.81836 160.08398 C 360.44749 157.48268 362.0787 154.88338 363.79297 152.33789 C 375.86453 134.41297 389.66448 117.75382 403.58203 101.23828 C 411.51638 97.919469 420.00878 95.618643 428.50781 95.105469 C 429.07135 95.071443 429.63682 95.057239 430.20117 95.054688 z M 390.42969 107.98633 C 390.07315 108.41124 389.71564 108.83457 389.35938 109.25977 C 388.73366 109.42395 387.70652 109.82367 387.16992 109.93555 C 388.2638 109.29925 389.34566 108.64056 390.42969 107.98633 z M 387.99023 110.88867 C 380.2678 120.12511 372.64815 129.45398 365.36328 139.0332 C 367.99273 133.23284 370.75794 128.47145 374.91211 123.375 C 379.44006 117.81996 382.94255 115.07575 387.99023 110.88867 z M 205.12695 121.76953 C 205.12401 121.77755 205.09468 121.79782 205.03516 121.83398 C 204.30761 122.27601 203.57284 122.70487 202.83789 123.13477 C 203.06184 122.93587 203.29021 122.74156 203.5332 122.56641 C 203.92873 122.2813 205.14756 121.71338 205.12695 121.76953 z M 194.14258 132.59961 C 194.15466 132.69067 194.16463 132.78217 194.17773 132.87305 C 194.20764 133.32565 194.22143 133.77588 194.23633 134.22656 C 193.73234 134.21377 193.2286 134.19907 192.72461 134.18945 C 193.19891 133.66116 193.67132 133.13077 194.14258 132.59961 z M 176.55078 141.45508 C 177.10609 141.44893 177.66145 141.45913 178.2168 141.45703 C 177.94664 141.75452 177.68293 142.0586 177.41016 142.35352 C 170.68486 149.62459 163.41497 156.38271 155.54688 162.4082 C 159.89129 162.93526 159.32986 162.72858 152.79492 165.7168 C 152.74379 164.33629 152.65963 162.95594 152.71094 161.57617 C 152.94855 155.18981 154.23098 148.90103 155.83594 142.69922 C 162.73313 141.94003 169.63988 141.53157 176.55078 141.45508 z M 185.78516 141.55078 C 188.46792 141.62637 191.15157 141.73946 193.83398 141.90039 C 192.91226 148.86929 190.64301 155.63776 188.33594 162.30078 C 184.5755 172.06161 179.82172 181.39438 174.39258 190.32227 C 171.25739 189.53002 168.20638 188.42653 165.30469 186.78516 C 164.16458 186.00138 162.95641 185.30624 161.88281 184.43359 C 156.57786 180.12162 153.86214 173.79716 152.93359 167.17188 C 158.90042 163.4056 164.55866 159.66324 167.86914 157.55469 C 174.19806 152.62962 180.15202 147.24989 185.78516 141.55078 z M 205.2793 142.82812 C 212.32112 143.54292 219.35589 144.50697 226.37695 145.67773 C 232.40647 146.68315 238.38065 147.99277 244.38281 149.15039 C 265.94015 153.73112 286.99354 160.41295 306.57031 170.62891 C 316.86023 175.99861 319.37309 178.00524 328.74414 184.23633 C 330.6595 185.63719 332.55069 187.08632 334.41406 188.57031 C 330.38914 197.57579 327.28457 206.96506 325.91016 216.76953 C 325.56597 219.22488 325.50101 221.71266 325.29688 224.18359 C 325.4375 226.5622 325.31214 228.97055 325.71875 231.31836 C 326.98952 238.6558 330.85553 245.38844 336.22461 250.49805 C 341.4911 255.51001 344.08213 256.29138 350.53711 259.71289 C 351.31736 259.92788 352.09323 260.15702 352.86914 260.39062 C 352.59329 261.00205 352.31265 261.61118 352.02148 262.2168 C 350.76783 264.82437 349.25626 267.29862 347.87305 269.83984 C 344.44917 275.45942 340.51014 280.71905 335.97266 285.40039 C 327.14399 288.59003 318.26556 291.63912 309.31445 294.48047 C 308.57803 294.71654 307.84003 294.94779 307.10352 295.18359 C 307.32002 292.26711 307.46761 289.34708 307.5332 286.42383 C 307.45727 283.80148 307.46283 281.17532 307.30469 278.55664 C 306.63789 267.51485 304.74109 255.19555 301.10352 244.74219 C 300.17151 242.06386 298.94877 239.49616 297.87109 236.87305 C 294.47647 230.76196 293.62913 228.43564 288.9707 223.19531 C 281.84652 215.18123 272.41659 209.58209 262.81055 205.10156 C 249.39098 200.02234 235.92222 195.93828 221.49023 195.17578 C 210.87831 194.44524 200.25897 193.79244 189.69141 192.53906 C 187.20408 192.29842 184.7103 192.05633 182.23242 191.74023 C 183.42734 189.93676 184.59355 188.1158 185.73633 186.2793 C 199.09646 174.96787 212.90292 164.18252 227.01562 153.82812 C 232.33961 149.9553 229.95768 151.7295 234.18359 148.5332 L 220.61328 153.95117 C 216.7776 156.96074 218.95073 155.27772 214.07422 158.97266 C 206.3603 164.84778 198.73533 170.84347 191.20703 176.95703 C 194.86258 170.32756 198.14069 163.49502 200.89648 156.42773 C 202.49755 151.95799 204.07642 147.42977 205.2793 142.82812 z M 144.37891 144.30664 C 143.21123 148.50535 142.17647 152.73714 141.36719 157.02734 C 140.7446 160.3279 140.01681 164.5557 139.90039 167.94922 C 139.85765 169.1949 139.9301 170.44162 139.99414 171.6875 C 128.4573 176.38112 116.44121 178.41867 103.73633 177.75195 C 100.35471 177.25006 96.925322 177.00426 93.591797 176.24609 C 89.746274 175.37148 85.870145 174.13726 82.089844 172.57617 C 84.667752 169.83924 87.48906 167.20362 91.515625 164.08008 C 95.37661 161.08497 99.513638 158.44112 103.74219 155.99219 C 104.55196 155.52322 105.60583 155.71956 106.48828 155.4082 C 132.10503 146.36979 110.13436 152.68627 137.84766 145.53516 C 140.02326 145.08046 142.20022 144.68057 144.37891 144.30664 z M 294.75781 149.7832 C 295.06396 149.64702 294.26106 150.75377 294.04688 150.49609 C 293.97579 150.41056 293.92501 150.31424 293.88086 150.21484 C 294.17166 150.0671 294.46161 149.91495 294.75781 149.7832 z M 485.01367 158.03906 C 487.34267 158.02828 489.96922 158.22743 492.57227 158.70508 C 492.5641 158.84049 492.55011 158.97591 492.54297 159.11133 C 491.62064 164.19035 491.31225 166.71576 490.33789 170.10547 C 490.00177 170.5511 489.67876 171.00271 489.33594 171.44531 C 481.38704 181.14813 478.73756 185.13777 469.22266 193.61328 C 465.45318 196.97099 461.25159 199.81199 457.33594 202.99805 C 456.79254 203.4402 456.47293 204.15734 455.85547 204.48828 C 446.86825 209.30504 444.13315 210.42771 438.55273 212.25977 C 436.93619 207.56218 437.59685 202.87817 438.62891 197.1543 C 441.91761 188.3169 442.08308 186.13967 447.81836 178.20508 C 450.14856 174.98132 453.53618 172.55152 455.57617 169.13672 C 455.92641 168.55045 453.10111 168.86024 453.64648 168.44922 C 460.55967 163.2391 466.79659 161.83506 474.78125 159.14453 C 478.19207 158.77593 481.58302 158.05496 485.01367 158.03906 z M 503.33789 163.4375 C 510.54931 169.81977 508.2005 178.82832 506.375 187.33398 C 504.57587 191.28965 503.18951 195.46008 500.97852 199.20117 C 495.23926 208.91227 488.49066 216.04877 479.93945 223.39648 C 479.13331 224.08916 465.64643 234.89411 460.52148 237.52344 C 455.17077 240.26859 449.66251 242.69278 444.23242 245.27734 C 438.75873 247.22877 433.37761 249.4663 427.81055 251.13281 C 421.79162 252.93459 415.58496 254.35296 409.29688 255.32031 C 415.67415 251.59518 421.90671 247.89749 425.72656 245.65625 C 442.60471 235.19142 458.69197 223.29623 472.97266 209.45508 C 475.59702 206.91149 478.07815 204.22292 480.63086 201.60742 C 489.07296 192.22413 496.59479 181.77584 500.99023 169.83594 C 501.82907 167.55732 502.39213 165.76532 502.83398 164.11133 C 503.0007 163.88594 503.17276 163.66377 503.33789 163.4375 z M 482.97461 187.05078 C 478.86665 194.14684 473.77869 200.67567 468.26758 206.74414 C 465.72303 209.33037 463.24583 211.98492 460.63281 214.50195 C 446.34911 228.26094 430.27004 240.04901 413.39258 250.41211 C 417.9153 248.61253 416.17565 249.24935 404.28516 255.75586 C 404.09351 255.86073 403.89887 255.95993 403.70703 256.06445 C 393.12954 257.2111 382.40687 256.98977 372.02148 254.97266 C 369.95127 254.57057 367.92917 253.96666 365.91016 253.34766 C 369.62097 244.60573 371.92113 235.13043 371.51953 225.59961 C 371.41787 223.18695 370.93905 220.80545 370.64844 218.4082 C 370.43607 217.60143 370.2881 217.00661 370.11328 216.31641 C 370.95189 216.83276 371.79709 217.33557 372.64844 217.82617 C 380.31176 222.2423 384.65012 223.79814 393.68164 224.7168 C 404.2568 225.79246 408.74142 224.48986 419.21484 222.99414 C 421.77194 222.17298 424.35901 221.43867 426.92578 220.64453 C 427.52584 222.04327 428.30526 223.4665 429.32031 224.94727 C 430.23499 226.28161 431.55229 227.29141 432.66797 228.46289 L 444.93945 220.93164 C 443.83849 219.91642 442.54594 219.07477 441.63672 217.88477 C 441.01089 217.06568 440.47611 216.25884 440.01367 215.45898 C 441.98503 214.51682 443.93299 213.52539 445.8418 212.4668 C 460.02768 204.59955 469.65735 199.21359 481.01758 188.88086 C 481.72531 188.23714 482.33455 187.65239 482.97461 187.05078 z M 341.9375 195.12109 C 346.65526 199.70253 350.78954 204.82385 353.76367 210.82617 C 356.62905 216.60902 356.85456 218.91254 358.37305 225.05469 C 359.70178 233.34288 358.98589 241.57823 356.81445 249.50195 C 353.83603 247.9414 351.55716 246.52324 348.16797 243.30664 C 342.98985 238.3922 339.33609 231.96005 338.16797 224.88672 C 337.79041 222.60049 337.91677 220.25909 337.79102 217.94531 C 337.98663 215.53337 338.05479 213.10703 338.37891 210.70898 C 339.09715 205.39491 340.32683 200.2001 341.9375 195.12109 z M 164.72266 204.89062 C 161.60244 209.23166 158.72386 212.93563 154.75977 218.15625 C 140.98247 236.0066 124.91131 251.85207 108.97852 267.74609 C 112.66616 261.99146 116.42245 256.95871 120.88281 251.43164 C 128.356 242.17123 136.51679 233.06512 144.75977 224.50391 C 149.41258 219.67148 154.25157 215.02171 158.99805 210.28125 C 160.89218 208.46894 162.80342 206.6754 164.72266 204.89062 z M 361.27148 262.63672 C 369.7172 264.2233 379.00152 264.65293 388.01172 264.12695 C 383.70646 266.21549 379.3675 268.2381 374.98828 270.16602 C 371.79005 271.57402 368.55768 272.90037 365.3418 274.26758 C 359.46331 276.58635 353.56785 278.86155 347.6543 281.08789 C 352.56712 276.03707 356.77626 270.31458 360.41016 264.21289 C 360.69092 263.68429 360.98346 263.16168 361.27148 262.63672 z M 327.35352 292.98438 C 326.54188 293.58788 325.72001 294.18108 324.87695 294.75 C 322.49724 296.3559 320.11548 298.01436 317.48828 299.17188 C 315.9629 299.84395 320.18066 297.20692 321.52734 296.22461 C 318.62569 297.34584 315.76643 298.58554 312.82227 299.58984 C 310.7318 300.30293 308.6203 300.9491 306.49805 301.56055 C 306.54768 301.10409 306.60011 300.64815 306.64648 300.19141 C 313.58509 297.89187 320.4843 295.48073 327.35352 292.98438 z M 294.61133 304.08203 C 294.59691 304.25018 294.57938 304.41784 294.56445 304.58594 C 292.95739 304.94827 291.34891 305.29841 289.73828 305.64062 C 291.36297 305.12198 292.98745 304.6032 294.61133 304.08203 z M 293.95703 310.33789 C 292.29829 323.96491 289.14956 337.40505 285.69336 350.68555 C 280.16241 370.1763 273.0001 389.31067 263.42578 407.20117 C 261.47975 410.83752 259.31522 414.35209 257.25977 417.92773 C 254.84537 421.41926 252.5684 425.01066 250.01562 428.40234 C 242.54936 438.3222 233.94467 447.33137 224.16016 454.99023 C 221.20421 457.30402 218.06972 459.38288 214.97656 461.50977 C 214.30203 461.97358 216.25924 460.49137 216.90039 459.98242 C 206.79813 464.79112 196.08122 467.91759 184.81641 466.58789 C 178.48263 465.84025 176.90652 464.94858 170.95898 462.9043 C 168.94735 461.90871 166.84484 461.07687 164.92383 459.91602 C 157.5395 455.45372 151.72643 448.44334 147.89648 440.7793 C 146.94866 438.88264 146.24824 436.87338 145.42383 434.91992 C 141.73469 424.71907 141.17125 413.9086 143.58594 403.33984 C 144.11252 401.03503 144.87894 398.79169 145.52539 396.51758 C 149.08428 386.43054 154.45872 377.02382 161.18359 368.70508 C 165.66408 363.16265 168.18549 360.95622 173.25586 355.95117 C 179.51361 350.17949 186.05355 344.71374 193.13867 339.97852 C 193.71102 339.59599 194.29167 339.22771 194.87695 338.86523 C 197.38948 338.50378 199.44276 336.61087 201.72852 335.49414 C 212.73602 330.44644 224.13278 326.36825 235.63867 322.62891 C 239.78801 321.67708 243.94226 320.75314 248.10547 319.87695 L 260.19922 317.47656 C 264.09297 316.71833 267.98928 315.97049 271.88086 315.20117 C 279.26418 313.74159 286.67209 312.25521 293.95703 310.33789 z M 205.29297 330.42188 C 189.08168 338.68186 173.72002 348.50708 160.57812 361.19922 C 155.53656 366.26944 152.96057 368.57354 148.50977 374.1875 C 141.77191 382.68623 136.44786 392.29092 132.88672 402.5293 C 132.25331 404.85153 131.49974 407.14441 130.98633 409.49609 C 128.61932 420.33809 129.21026 431.41595 133.11719 441.82422 C 133.97172 443.82947 134.70177 445.89276 135.68164 447.83984 C 136.83025 450.12224 138.15478 452.35355 139.63477 454.48828 C 135.92476 451.5452 132.29037 448.5114 128.82812 445.26953 C 121.00879 437.23419 113.39869 428.67236 109.99023 417.75195 C 109.66896 416.34102 109.27716 414.94256 109.02539 413.51758 C 107.94332 407.39327 108.0337 401.07475 108.7832 394.92578 C 109.37124 391.69745 109.50202 390.38033 110.57422 387.16406 C 113.19523 379.30188 117.76071 372.45297 123.84375 366.82812 C 138.07216 355.28826 121.97063 368.04391 138.21875 356.2207 C 141.14127 354.71063 144.04621 353.16651 147.01758 351.75586 C 156.17979 347.4061 161.37697 345.52541 170.87109 341.75391 C 175.12101 340.22899 179.34577 338.63187 183.62109 337.17969 C 190.78655 334.74584 198.01775 332.51001 205.29297 330.42188 z M 58.488281 647.05469 C 61.421522 646.95638 64.265635 647.76882 67.042969 648.61719 C 71.697611 650.02051 76.041525 652.11805 80.216797 654.58008 C 86.952203 658.79463 92.574846 664.37942 97.912109 670.19727 C 104.46906 677.70175 110.16518 685.90514 116.17773 693.8418 C 122.27379 701.8052 128.99276 709.25681 135.91211 716.50586 C 139.16798 719.98599 142.51204 723.38409 145.95898 726.67188 C 135.25561 731.4224 123.85636 734.7801 112.05859 734.86914 C 104.99899 734.92244 103.10443 734.2311 96.271484 732.94727 C 81.913176 728.89519 70.449809 720.23725 59.453125 710.54297 C 51.581986 703.35067 44.797407 695.10807 39.025391 686.16406 C 36.898478 682.64871 34.947037 678.8741 34.998047 674.67969 C 35.990716 669.10689 39.287736 664.17337 42.421875 659.57617 C 45.55241 655.00843 49.481113 651.2896 53.804688 648.00195 C 54.342234 647.80041 54.863274 647.61768 55.328125 647.49414 C 56.685479 647.13338 57.133045 647.15823 58.488281 647.05469 z M 146.16406 726.86914 C 146.20977 726.91262 146.25504 726.95656 146.30078 727 C 145.60912 727.42405 144.92656 727.86007 144.22656 728.27344 C 143.40944 728.75597 144.9013 727.73832 146.16406 726.86914 z M 199.05469 737.64844 C 199.11456 737.70901 197.22156 739.06062 195.74023 739.44922 C 195.73314 739.45108 195.72585 739.45129 195.71875 739.45312 C 196.77825 738.86814 197.83369 738.27515 198.90234 737.70703 C 198.99749 737.65645 199.04613 737.63978 199.05469 737.64844 z "
       id="path5926" />
  </g>
</svg>
