<?xml version="1.0" encoding="UTF-8" standalone="no"?>
<!-- Created with Inkscape (http://www.inkscape.org/) -->

<svg
   xmlns:dc="http://purl.org/dc/elements/1.1/"
   xmlns:cc="http://creativecommons.org/ns#"
   xmlns:rdf="http://www.w3.org/1999/02/22-rdf-syntax-ns#"
   xmlns:svg="http://www.w3.org/2000/svg"
   xmlns="http://www.w3.org/2000/svg"
   xmlns:xlink="http://www.w3.org/1999/xlink"
   xmlns:sodipodi="http://sodipodi.sourceforge.net/DTD/sodipodi-0.dtd"
   xmlns:inkscape="http://www.inkscape.org/namespaces/inkscape"
   width="210mm"
   height="297mm"
   viewBox="0 0 744.09448819 1052.3622047"
   id="svg4789"
   version="1.1"
   inkscape:version="0.91 r13725"
   sodipodi:docname="grid.svg"
   inkscape:export-filename="C:\Users\Jonathan\Projects\JByrdDesignsWeb\src\images\grid.png"
   inkscape:export-xdpi="96"
   inkscape:export-ydpi="96">
  <defs
     id="defs4791">
    <linearGradient
       inkscape:collect="always"
       id="linearGradient5368">
      <stop
         style="stop-color:#80ffe6;stop-opacity:1"
         offset="0"
         id="stop5370" />
      <stop
         style="stop-color:#80ffe6;stop-opacity:0"
         offset="1"
         id="stop5372" />
    </linearGradient>
    <linearGradient
       inkscape:collect="always"
       xlink:href="#linearGradient5368"
       id="linearGradient5374"
       x1="714.56299"
       y1="40.995369"
       x2="561.37793"
       y2="306.31967"
       gradientUnits="userSpaceOnUse" />
  </defs>
  <sodipodi:namedview
     id="base"
     pagecolor="#8d8d8d"
     bordercolor="#666666"
     borderopacity="1.0"
     inkscape:pageopacity="0"
     inkscape:pageshadow="2"
     inkscape:zoom="0.98994949"
     inkscape:cx="453.21263"
     inkscape:cy="736.64507"
     inkscape:document-units="px"
     inkscape:current-layer="layer1"
     showgrid="false"
     inkscape:window-width="1920"
     inkscape:window-height="1017"
     inkscape:window-x="1912"
     inkscape:window-y="-8"
     inkscape:window-maximized="1" />
  <metadata
     id="metadata4794">
    <rdf:RDF>
      <cc:Work
         rdf:about="">
        <dc:format>image/svg+xml</dc:format>
        <dc:type
           rdf:resource="http://purl.org/dc/dcmitype/StillImage" />
        <dc:title></dc:title>
      </cc:Work>
    </rdf:RDF>
  </metadata>
  <g
     inkscape:label="Layer 1"
     inkscape:groupmode="layer"
     id="layer1">
    <path
       d="M 0,0 0,1052.3622 M 10,0 10,1052.3622 M 20,0 20,1052.3622 M 30,0 30,1052.3622 M 40,0 40,1052.3622 M 50,0 50,1052.3622 M 60,0 60,1052.3622 M 70,0 70,1052.3622 M 80,0 80,1052.3622 M 90,0 90,1052.3622 M 100,0 100,1052.3622 M 110,0 110,1052.3622 M 120,0 120,1052.3622 M 130,0 130,1052.3622 M 140,0 140,1052.3622 M 150,0 150,1052.3622 M 160,0 160,1052.3622 M 170,0 170,1052.3622 M 180,0 180,1052.3622 M 190,0 190,1052.3622 M 200,0 200,1052.3622 M 210,0 210,1052.3622 M 220,0 220,1052.3622 M 230,0 230,1052.3622 M 240,0 240,1052.3622 M 250,0 250,1052.3622 M 260,0 260,1052.3622 M 270,0 270,1052.3622 M 280,0 280,1052.3622 M 290,0 290,1052.3622 M 300,0 300,1052.3622 M 310,0 310,1052.3622 M 320,0 320,1052.3622 M 330,0 330,1052.3622 M 340,0 340,1052.3622 M 350,0 350,1052.3622 M 360,0 360,1052.3622 M 370,0 370,1052.3622 M 380,0 380,1052.3622 M 390,0 390,1052.3622 M 400,0 400,1052.3622 M 410,0 410,1052.3622 M 420,0 420,1052.3622 M 430,0 430,1052.3622 M 440,0 440,1052.3622 M 450,0 450,1052.3622 M 460,0 460,1052.3622 M 470,0 470,1052.3622 M 480,0 480,1052.3622 M 490,0 490,1052.3622 M 500,0 500,1052.3622 M 510,0 510,1052.3622 M 520,0 520,1052.3622 M 530,0 530,1052.3622 M 540,0 540,1052.3622 M 550,0 550,1052.3622 M 560,0 560,1052.3622 M 570,0 570,1052.3622 M 580,0 580,1052.3622 M 590,0 590,1052.3622 M 600,0 600,1052.3622 M 610,0 610,1052.3622 M 620,0 620,1052.3622 M 630,0 630,1052.3622 M 640,0 640,1052.3622 M 650,0 650,1052.3622 M 660,0 660,1052.3622 M 670,0 670,1052.3622 M 680,0 680,1052.3622 M 690,0 690,1052.3622 M 700,0 700,1052.3622 M 710,0 710,1052.3622 M 720,0 720,1052.3622 M 730,0 730,1052.3622 M 740,0 740,1052.3622 M 0,0 744.09449,0 M 0,10 744.09449,10 M 0,20 744.09449,20 M 0,30 744.09449,30 M 0,40 744.09449,40 M 0,50 744.09449,50 M 0,60 744.09449,60 M 0,70 744.09449,70 M 0,80 744.09449,80 M 0,90 744.09449,90 M 0,100 744.09449,100 M 0,110 744.09449,110 M 0,120 744.09449,120 M 0,130 744.09449,130 M 0,140 744.09449,140 M 0,150 744.09449,150 M 0,160 744.09449,160 M 0,170 744.09449,170 M 0,180 744.09449,180 M 0,190 744.09449,190 M 0,200 744.09449,200 M 0,210 744.09449,210 M 0,220 744.09449,220 M 0,230 744.09449,230 M 0,240 744.09449,240 M 0,250 744.09449,250 M 0,260 744.09449,260 M 0,270 744.09449,270 M 0,280 744.09449,280 M 0,290 744.09449,290 M 0,300 744.09449,300 M 0,310 744.09449,310 M 0,320 744.09449,320 M 0,330 744.09449,330 M 0,340 744.09449,340 M 0,350 744.09449,350 M 0,360 744.09449,360 M 0,370 744.09449,370 M 0,380 744.09449,380 M 0,390 744.09449,390 M 0,400 744.09449,400 M 0,410 744.09449,410 M 0,420 744.09449,420 M 0,430 744.09449,430 M 0,440 744.09449,440 M 0,450 744.09449,450 M 0,460 744.09449,460 M 0,470 744.09449,470 M 0,480 744.09449,480 M 0,490 744.09449,490 M 0,500 744.09449,500 M 0,510 744.09449,510 M 0,520 744.09449,520 M 0,530 744.09449,530 M 0,540 744.09449,540 M 0,550 744.09449,550 M 0,560 744.09449,560 M 0,570 744.09449,570 M 0,580 744.09449,580 M 0,590 744.09449,590 M 0,600 744.09449,600 M 0,610 744.09449,610 M 0,620 744.09449,620 M 0,630 744.09449,630 M 0,640 744.09449,640 M 0,650 744.09449,650 M 0,660 744.09449,660 M 0,670 744.09449,670 M 0,680 744.09449,680 M 0,690 744.09449,690 M 0,700 744.09449,700 M 0,710 744.09449,710 M 0,720 744.09449,720 M 0,730 744.09449,730 M 0,740 744.09449,740 M 0,750 744.09449,750 M 0,760 744.09449,760 M 0,770 744.09449,770 M 0,780 744.09449,780 M 0,790 744.09449,790 M 0,800 744.09449,800 M 0,810 744.09449,810 M 0,820 744.09449,820 M 0,830 744.09449,830 M 0,840 744.09449,840 M 0,850 744.09449,850 M 0,860 744.09449,860 M 0,870 744.09449,870 M 0,880 744.09449,880 M 0,890 744.09449,890 M 0,900 744.09449,900 M 0,910 744.09449,910 M 0,920 744.09449,920 M 0,930 744.09449,930 M 0,940 744.09449,940 M 0,950 744.09449,950 M 0,960 744.09449,960 M 0,970 744.09449,970 M 0,980 744.09449,980 M 0,990 744.09449,990 M 0,1000 l 744.09449,0 M 0,1010 l 744.09449,0 M 0,1020 l 744.09449,0 M 0,1030 l 744.09449,0 M 0,1040 l 744.09449,0 M 0,1050 l 744.09449,0"
       style="fill:none;fill-opacity:1;fill-rule:evenodd;stroke:url(#linearGradient5374);stroke-linecap:butt;stroke-linejoin:miter;stroke-opacity:1;stroke-width:1pt;opacity:0.15"
       id="path5350"
       inkscape:export-xdpi="96"
       inkscape:export-ydpi="96" />
  </g>
</svg>
